<svg width="32" height="32" viewBox="0 0 32 32" fill="none" xmlns="http://www.w3.org/2000/svg">
<path fill-rule="evenodd" clip-rule="evenodd" d="M5.24609 12.8996L14.2694 18.196C14.3666 18.253 14.4684 18.2942 14.5721 18.3204V28.5926L5.88964 23.3686C5.49075 23.1286 5.24609 22.6924 5.24609 22.2211V12.8996ZM26.2297 12.7588V22.2211C26.2297 22.6924 25.985 23.1286 25.5862 23.3686L16.9037 28.5926V18.2304C16.9248 18.2197 16.9458 18.2082 16.9665 18.196L26.2297 12.7588V12.7588Z" fill="white"/>
<path fill-rule="evenodd" clip-rule="evenodd" d="M5.5293 10.3289C5.63951 10.1874 5.77863 10.0678 5.94081 9.97995L15.1211 5.00881C15.5065 4.80012 15.9688 4.80012 16.3542 5.00881L25.5345 9.97995C25.6595 10.0476 25.7709 10.1342 25.8658 10.2352L15.8005 16.1432C15.7344 16.182 15.6733 16.2265 15.6177 16.2756C15.5621 16.2265 15.5011 16.182 15.4349 16.1432L5.5293 10.3289Z" fill="#FAB8C4"/>
</svg>
