<svg xmlns="http://www.w3.org/2000/svg" width="56" height="56" fill="none" viewBox="0 0 56 56">
    <rect width="56" height="56" fill="#E5F1FF" rx="20"/>
    <path fill="#3892D5" d="M28 16c-6.616 0-12 5.384-12 12s5.384 12 12 12 12-5.384 12-12-5.384-12-12-12zm0 22.933c-6.03 0-10.933-4.904-10.933-10.933 0-6.03 4.904-10.933 10.933-10.933 6.03 0 10.933 4.904 10.933 10.933 0 6.03-4.904 10.933-10.933 10.933zm5.976-15.042c.208.208.208.546 0 .754l-7.467 7.467c-.104.101-.24.155-.376.155s-.272-.054-.376-.158l-3.733-3.733c-.208-.208-.208-.547 0-.755.208-.208.547-.208.755 0l3.354 3.358 7.091-7.091c.208-.208.544-.208.752.003z"/>
</svg>
