<svg xmlns="http://www.w3.org/2000/svg" width="56" height="56" fill="none" viewBox="0 0 56 56">
    <rect width="56" height="56" fill="#E5F1FF" rx="20"/>
    <path fill="#3892D5" d="M22.667 16H16v6.667h6.667V16zm-1.334 5.333h-4v-4h4v4zm12-5.333v6.667H40V16h-6.667zm5.334 5.333h-4v-4h4v4zM16 40h6.667v-6.667H16V40zm1.333-5.333h4v4h-4v-4zm6.667 4h8V40h-8v-1.333zM38.667 24H40v13.333h-1.333V24zM32 25.333v12h-1.333V16H32v8h2.667v6.667h-1.334v-5.334H32zm5.333 4H36V24h1.333v5.333zM36 34h1.333v3.333h-4V32h1.334v4H36v-2zm0-3.333h1.333v2H36v-2zm-10.667-12H24V16h1.333v2.667zm0 4H24V20h1.333v2.667zm-2 6.666H16V28h6v-2h2v-2h4v-1.333h-1.333V16h2.666v1.333H28v4h1.333v4h-4v2h-2v2zm-2.666-2.666H16V24h1.333v1.333h3.334v1.334zM17.333 32H16v-1.333h1.333V32zm12-2H26v2h-7.333v-1.333h6v-2H28v-2h1.333V30zm-4 4.667V36h4v1.333H24v-4h4v-2h1.333v3.334h-4zM20 20h-1.333v-1.333H20V20zm17.333 0H36v-1.333h1.333V20zM18.667 36H20v1.333h-1.333V36zm14.666 2.667H40V40h-6.667v-1.333z"/>
</svg>
