<svg xmlns="http://www.w3.org/2000/svg" width="56" height="56" fill="none" viewBox="0 0 56 56">
    <rect width="56" height="56" fill="#333BFF" rx="20"/>
    <path fill="#fff" fill-rule="evenodd" d="M27.65 14.003c-2.878.065-5.753 1.017-8.185 2.883-5.56 4.265-7.097 12-3.594 18.068.032.06.075.113.127.155.052.043.112.074.177.093.065.019.133.024.2.016.066-.008.13-.03.189-.064.058-.033.11-.078.15-.132.04-.054.07-.115.085-.18.016-.066.02-.134.008-.2-.01-.067-.034-.13-.07-.188-3.257-5.64-1.83-12.81 3.337-16.775 4.83-3.705 11.514-3.528 16.127.27h-.707c-.066-.001-.132.011-.193.036-.062.024-.118.061-.165.108-.047.046-.085.102-.11.163-.026.06-.039.126-.039.193 0 .066.013.131.039.193.025.06.063.116.11.163.047.046.103.083.165.108.061.024.127.037.193.036h1.979c.071.003.143-.008.21-.034.066-.027.127-.067.176-.119.011-.01.022-.021.032-.033.032-.04.058-.086.076-.135.006-.014.01-.028.015-.043v-.004c.004-.014.008-.03.01-.044.005-.03.008-.059.008-.088v-2.004c.001-.067-.011-.134-.037-.196-.025-.062-.062-.118-.11-.166-.047-.047-.103-.084-.165-.11-.062-.025-.129-.037-.196-.036-.066.001-.13.015-.19.041-.06.026-.115.064-.161.11-.046.048-.082.104-.106.165-.024.06-.036.126-.035.192v.873c-2.34-1.986-5.197-3.096-8.117-3.287-.41-.027-.821-.037-1.233-.028zM28 19.8c-2.37 0-4.295 1.916-4.295 4.28v1.22h-1.668c-.132 0-.26.053-.353.147-.094.093-.147.22-.147.353v9.9c0 .133.053.26.147.354.093.094.22.146.353.146h11.926c.133 0 .26-.052.353-.146.094-.094.147-.22.147-.354v-9.9c0-.132-.053-.26-.147-.353-.093-.094-.22-.147-.353-.147h-1.668v-1.22c0-2.364-1.926-4.28-4.295-4.28zm11.68.979c-.09 0-.176.026-.252.072-.077.046-.14.111-.182.19-.042.078-.063.166-.06.255.003.089.03.175.078.25 3.256 5.64 1.829 12.811-3.338 16.776-4.829 3.704-11.512 3.526-16.125-.27h.684c.066 0 .131-.011.193-.036.061-.025.117-.061.165-.108.047-.046.084-.102.11-.163.025-.061.039-.127.039-.193s-.014-.132-.04-.193c-.025-.061-.062-.117-.11-.163-.046-.047-.102-.083-.164-.108-.062-.025-.127-.037-.194-.036h-1.921c-.061-.008-.123-.005-.182.01-.113.023-.215.084-.288.174-.073.089-.112.2-.112.316v2.004c-.001.066.01.132.036.193.024.062.061.118.108.165.046.047.102.085.163.11.06.026.126.039.193.039.066 0 .131-.013.193-.039.06-.025.116-.063.163-.11.046-.047.083-.103.108-.165.024-.061.037-.127.036-.193v-.89c2.343 1.996 5.208 3.112 8.136 3.304 3.282.215 6.639-.723 9.418-2.855 5.56-4.266 7.097-12 3.594-18.069-.043-.081-.108-.15-.187-.197-.08-.047-.17-.072-.262-.07zM28 20.8c1.835 0 3.295 1.455 3.295 3.28v1.22h-6.59v-1.22c0-1.825 1.46-3.28 3.295-3.28zm-5.463 5.5H33.463v8.9H22.537v-8.9zM28 28.093c-.927 0-1.693.757-1.693 1.684 0 .752.507 1.384 1.193 1.6v2.546h1v-2.547c.686-.215 1.194-.847 1.193-1.6 0-.926-.766-1.683-1.693-1.683zm0 1c.39 0 .693.302.693.684 0 .382-.303.685-.693.685-.39 0-.693-.303-.693-.685 0-.383.303-.684.693-.684z" clip-rule="evenodd"/>
</svg>
