<svg xmlns="http://www.w3.org/2000/svg" width="56" height="56" fill="none" viewBox="0 0 56 56">
    <rect width="56" height="56" fill="#333BFF" rx="20"/>
    <path fill="#fff" d="M27.83 24.113c.053.025.111.038.17.038.059 0 .117-.013.17-.038.727-.33 1.373-.814 1.893-1.42.753-.885 1.15-1.947 1.15-3.07v-1.82c0-.104-.04-.205-.111-.281-.072-.076-.17-.122-.274-.128-.688-.037-1.357-.232-1.956-.571-.214-.125-.416-.268-.604-.43-.075-.064-.17-.1-.268-.1s-.193.036-.268.1c-.188.162-.39.305-.604.43-.6.339-1.268.534-1.955.57-.105.007-.203.053-.275.129-.071.076-.111.177-.111.281v1.82c0 1.123.398 2.185 1.15 3.07.52.606 1.166 1.09 1.893 1.42zm-2.223-5.937c.68-.084 1.337-.303 1.933-.644.159-.092.312-.194.46-.303.148.11.302.21.46.303.596.34 1.253.56 1.933.644v1.447c0 .926-.33 1.804-.955 2.54-.4.465-.889.847-1.438 1.122-.549-.275-1.037-.657-1.438-1.122-.625-.736-.955-1.614-.955-2.54v-1.447zm16.273 8.667c-.038-.039-.083-.069-.133-.09-.05-.02-.103-.03-.157-.03-.054 0-.107.01-.157.03-.05.021-.095.051-.133.09l-2.371 2.37-5.625-5.742c.44-.714.73-1.51.851-2.34l1.599-1.61c.076-.077.12-.182.119-.29 0-.11-.044-.214-.121-.29-.078-.077-.182-.12-.29-.12-.11.001-.214.045-.29.122l-.958.964c-.081-1.603-.779-3.113-1.947-4.213-1.168-1.101-2.716-1.708-4.322-1.694-1.605.014-3.142.648-4.29 1.77-1.15 1.12-1.82 2.643-1.873 4.247l-1.113-1.08c-.078-.075-.183-.117-.291-.115-.109.002-.213.047-.288.125-.076.078-.118.183-.116.291.002.109.046.213.124.288l1.764 1.711c.133.808.426 1.582.86 2.276l-5.616 5.735-2.406-2.405c-.038-.039-.083-.069-.133-.09-.05-.02-.103-.03-.157-.03-.054 0-.107.01-.157.03-.05.021-.095.051-.133.09-.038.038-.068.083-.089.133-.02.05-.031.103-.031.157 0 .053.01.107.031.157.02.05.051.094.09.133l2.626 2.626c.034.06.084.11.145.145l.36.36c.19.192.417.344.665.447.25.103.516.156.786.155.19 0 .38-.027.564-.079.01.278.04.556.09.83-.19.088-.364.209-.513.358l-.9.9c-.249.249-.418.565-.487.91-.068.345-.033.702.101 1.027.135.325.363.602.655.798.292.195.636.3.987.3.056 0 .11-.004.165-.009-.023.247.006.495.084.73.078.234.205.45.371.632.167.183.37.329.596.428.226.1.47.152.718.152.055 0 .11-.003.164-.008-.005.054-.008.109-.008.164 0 .233.046.464.135.68.09.216.22.411.385.576.165.166.361.296.577.386.216.089.447.135.68.134.055 0 .11-.002.164-.007-.005.054-.008.109-.008.164 0 .234.046.465.135.68.09.216.22.412.386.577.334.333.785.52 1.257.52.471 0 .923-.187 1.256-.52l.593-.592.592.592c.259.259.59.431.95.494s.731.014 1.062-.142c.331-.155.606-.409.787-.726.182-.318.26-.683.226-1.047.055.005.11.007.165.007.234 0 .465-.045.68-.134.216-.09.412-.22.577-.386.165-.165.296-.36.385-.576.09-.216.136-.447.136-.68 0-.055-.003-.11-.008-.164.054.005.109.008.164.008.471 0 .923-.188 1.256-.52.334-.334.521-.786.521-1.258 0-.055-.003-.11-.008-.163.055.005.11.007.164.007.352 0 .695-.104.988-.3.292-.195.52-.472.654-.797.135-.325.17-.682.101-1.027-.068-.345-.237-.661-.486-.91l-.497-.497c.578-.44 1.071-.98 1.456-1.596.19.056.385.084.582.084.27 0 .537-.052.786-.155.248-.103.474-.255.664-.446l3.133-3.133c.077-.076.12-.18.12-.29 0-.108-.043-.213-.12-.29zm-19.226-5.846l-.002-.018c-.124-.87-.034-1.758.264-2.586.297-.828.791-1.57 1.44-2.163.65-.594 1.434-1.02 2.286-1.24.85-.221 1.743-.231 2.6-.03.855.203 1.649.61 2.311 1.19.663.578 1.174 1.31 1.49 2.13.315.821.425 1.707.32 2.58-.104.873-.42 1.708-.92 2.431l-.003.004c-.617.892-1.489 1.578-2.501 1.968-1.013.39-2.119.465-3.175.217-1.056-.248-2.013-.808-2.746-1.608-.733-.8-1.208-1.802-1.364-2.875zm-3.951 9.338c-.162.001-.322-.03-.471-.093-.15-.062-.285-.152-.4-.267l-.146-.147 5.524-5.64c.325.392.696.742 1.105 1.044l-4.743 4.743c-.114.115-.25.206-.398.267-.15.062-.31.094-.471.093zm1.174 4.764c-.089.089-.194.159-.31.207-.117.048-.241.073-.367.073-.125 0-.25-.025-.366-.073-.116-.048-.222-.118-.31-.207-.18-.18-.28-.423-.28-.677 0-.254.1-.497.28-.677l.9-.9c.089-.09.194-.16.31-.208.117-.048.241-.073.367-.073s.25.024.367.072c.116.048.221.119.31.208.09.089.16.194.208.31.048.117.073.241.072.367 0 .126-.024.25-.073.367-.048.116-.119.221-.208.31l-.9.9zm1.257 2.213c-.126 0-.25-.024-.367-.072-.116-.048-.221-.119-.31-.208-.18-.18-.28-.423-.28-.677 0-.253.1-.497.28-.676l.9-.9c.18-.18.423-.28.677-.28.254 0 .497.1.676.28.18.18.28.423.28.676 0 .254-.1.497-.28.677l-.9.9c-.088.09-.194.16-.31.208-.116.048-.24.073-.366.072zm1.256 1.654c-.179-.18-.28-.423-.28-.677 0-.254.101-.497.28-.677l.9-.9c.18-.18.424-.28.677-.28.254 0 .497.101.677.28.179.18.28.423.28.677 0 .253-.1.497-.28.676l-.9.9c-.18.18-.423.28-.677.28-.253 0-.497-.1-.677-.28zm4.188 1.033l-.9.9c-.18.18-.424.28-.677.28-.254 0-.497-.1-.677-.28-.18-.18-.28-.423-.28-.677 0-.254.1-.497.28-.676l.9-.9c.18-.18.423-.28.677-.28.253 0 .496.101.676.28.179.18.28.423.28.676 0 .254-.1.497-.28.677zm8.878-5.577c0 .19-.056.374-.161.532-.105.157-.255.28-.43.352-.174.073-.367.092-.553.055-.185-.037-.356-.129-.49-.262l-2.938-2.94c-.038-.037-.084-.068-.134-.088-.05-.021-.103-.032-.157-.032-.053 0-.107.011-.157.032-.05.02-.095.05-.133.089-.038.038-.068.083-.089.133-.02.05-.03.103-.03.157 0 .054.01.107.03.157.021.05.051.095.09.133l2.938 2.939c.09.088.16.194.208.31.049.116.073.24.073.367 0 .125-.024.25-.072.366-.048.116-.119.222-.208.31-.089.09-.194.16-.31.209-.117.048-.241.072-.367.072s-.25-.025-.367-.073c-.116-.048-.221-.119-.31-.208l-2.939-2.939c-.077-.077-.181-.12-.29-.12-.109 0-.213.043-.29.12-.077.077-.12.181-.12.29 0 .109.043.213.12.29l2.939 2.94c.089.088.16.194.208.31.048.116.073.24.073.366s-.025.25-.073.367c-.048.116-.118.221-.207.31-.09.09-.195.16-.311.208-.116.048-.24.073-.366.072-.126 0-.25-.024-.367-.073-.116-.048-.222-.118-.31-.208l-2.94-2.938c-.037-.038-.083-.069-.132-.09-.05-.02-.104-.03-.157-.03-.054 0-.108.01-.157.03-.05.021-.095.052-.134.09-.038.038-.068.083-.088.133-.021.05-.032.103-.032.157 0 .053.01.107.032.157.02.05.05.095.088.133l2.94 2.938c.088.09.159.195.207.311.048.116.073.24.073.366s-.025.25-.073.366c-.048.117-.119.222-.207.31-.09.09-.195.16-.31.208-.117.048-.241.073-.367.073s-.25-.024-.366-.073c-.116-.048-.222-.118-.31-.207l-.623-.622c.171-.269.267-.578.277-.897.011-.318-.064-.634-.218-.913-.153-.28-.378-.512-.652-.674-.275-.163-.587-.248-.906-.248-.055 0-.11.002-.164.007.005-.054.008-.108.008-.163 0-.472-.187-.924-.52-1.257-.334-.334-.786-.52-1.257-.52-.055 0-.11.002-.164.007.005-.054.008-.109.008-.164 0-.471-.188-.923-.521-1.257-.333-.333-.785-.52-1.257-.52-.055 0-.11.002-.164.007.005-.054.008-.108.008-.163 0-.461-.179-.904-.499-1.235-.32-.332-.757-.525-1.218-.54-.066-.372-.09-.75-.073-1.128l.064-.064h.001l4.853-4.853.016-.018c.643.352 1.344.587 2.07.693l-2.48 2.77c-.216.244-.332.56-.323.886.009.325.142.635.372.865.437.436 1.029.681 1.646.681s1.209-.245 1.646-.68l2.188-2.189 5.035 5.035c.089.089.16.194.208.31.048.117.073.241.072.367zm.132-3.193c-.27.32-.577.606-.915.853l-4.176-4.176c-.025-.02-.047-.041-.067-.066-.038-.038-.083-.068-.133-.089-.05-.02-.103-.031-.157-.031-.053 0-.107.01-.157.031-.05.02-.095.05-.133.089l-2.477 2.478c-.283.283-.667.441-1.066.441-.4 0-.783-.158-1.066-.44-.082-.083-.13-.193-.132-.31-.004-.115.038-.228.115-.314l2.91-3.253c1.001-.02 1.982-.283 2.858-.767.055.071.113.138.176.201l4.68 4.679c.045.045.092.088.14.129-.12.19-.255.372-.4.545zm2.58-1.254c-.115.114-.25.205-.4.267-.15.062-.31.093-.47.093-.162 0-.322-.031-.471-.093-.15-.062-.285-.153-.4-.267l-4.678-4.68c-.022-.02-.042-.043-.061-.065.421-.311.802-.674 1.133-1.08l5.527 5.644-.18.181z"/>
</svg>
