<svg xmlns="http://www.w3.org/2000/svg" width="56" height="56" fill="none" viewBox="0 0 56 56">
    <rect width="56" height="56" fill="#333BFF" rx="20"/>
    <path fill="#fff" fill-rule="evenodd" d="M37.1 29.82h-2.94c-.42 0-.7-.28-.7-.7 0-.42.28-.7.7-.7h2.94c.7 0 1.4-.14 2.1-.28.42-.14.7-.28.98-.42.28-.14.42-.56.42-.84 0-.28-.14-.56-.28-.84-.7-.84-1.96-1.4-3.64-1.96-.14 0-.14-.14-.28-.14-.42-.28-.7-.7-.84-1.12 0-.56.28-.98.7-1.26.98-1.4 1.54-2.66 1.4-3.78-.14-.7-.42-1.26-.98-1.68-.98-.7-2.38-.7-3.22 0-.56.42-.84.98-.98 1.68-.14 1.12.42 2.38 1.4 3.78.28.28.14.7-.14.98s-.7.14-.98-.14c-1.4-1.68-1.96-3.36-1.68-4.9.14-.98.7-1.96 1.54-2.52 1.4-1.12 3.5-1.12 4.9 0 .84.7 1.4 1.54 1.54 2.52.14 1.54-.42 3.22-1.68 4.9-.14.14-.14.28-.28.28 0 0 .14 0 .14.14 1.82.56 3.22 1.4 4.06 2.38.42.42.7 1.12.7 1.82 0 .38-.088.755-.258 1.096-.17.34-.417.636-.722.864-.42.28-.84.56-1.4.7-.84 0-1.68.14-2.52.14zM21.84 29.82H18.9c-.98 0-1.82-.14-2.52-.42-.56-.14-.98-.42-1.4-.7-.56-.42-.98-1.26-.98-1.96s.28-1.26.7-1.82c.98-.98 2.38-1.68 4.2-2.24 0 0 .14 0 .14-.14 0 0-.14-.14-.14-.28-1.4-1.68-2.1-3.5-1.82-4.9.14-.98.7-1.96 1.54-2.52 1.4-1.12 3.5-1.12 4.9 0 .84.7 1.4 1.54 1.54 2.52.14 1.54-.42 3.22-1.68 4.9-.28.28-.7.28-.98.14-.28-.28-.42-.7-.14-.98 1.12-1.4 1.54-2.8 1.4-3.78 0-.7-.42-1.26-.98-1.68-.98-.7-2.24-.7-3.22 0-.56.42-.98.98-.98 1.54-.14 1.12.42 2.38 1.4 3.78.28.42.7.84.56 1.26 0 .56-.42.84-.84 1.12 0 0-.14.14-.28.14-1.54.7-2.66 1.26-3.5 2.1-.14.28-.28.56-.28.84 0 .42.14.7.42.84.28.14.56.28.98.42.56.28 1.26.42 1.96.42h2.94c.42 0 .7.28.7.7 0 .42-.28.7-.7.7z" clip-rule="evenodd"/>
    <path fill="#fff" fill-rule="evenodd" d="M30.94 42H25.2c-1.26 0-2.38-.14-3.36-.56-.7-.28-1.26-.56-1.68-.98-.84-.42-1.26-1.4-1.26-2.38 0-.84.28-1.54.84-2.24 1.12-1.26 2.94-2.24 5.46-3.08l.42-.42-.42-.42c-1.82-2.38-2.66-4.48-2.38-6.44.28-1.26.84-2.38 1.96-3.22 1.82-1.26 4.62-1.26 6.3 0 1.12.84 1.82 1.96 1.96 3.22.28 1.96-.56 4.2-2.24 6.44-.42.42-.42.56-.42.56s.28.14.42.28c2.52.84 4.34 1.82 5.46 3.08.56.56.84 1.4.84 2.24 0 .98-.42 1.96-1.12 2.52-.42.42-.98.7-1.68.98-1.12.28-2.24.42-3.36.42zM28 22.54c-.84 0-1.68.28-2.38.7-.84.56-1.26 1.4-1.4 2.38-.14 1.54.56 3.36 1.96 5.32.42.42.84.84.7 1.54 0 .56-.56.98-.98 1.4 0 0-.14.14-.28.14-2.38.7-3.92 1.68-5.04 2.8-.14.28-.28.84-.28 1.26 0 .56.28 1.12.7 1.4.28.28.84.56 1.4.7.84.28 1.82.42 2.8.42h5.74c.98 0 1.96-.14 2.8-.42.56-.14.98-.42 1.4-.7.42-.28.7-.84.7-1.4 0-.42-.14-.98-.56-1.26-.98-1.12-2.66-1.96-5.04-2.8-.14 0-.14-.14-.28-.14-.42-.42-.98-.84-.98-1.4 0-.56.42-1.12.84-1.54 1.4-1.82 2.1-3.78 1.96-5.32-.14-.98-.56-1.68-1.4-2.38-.7-.42-1.54-.7-2.38-.7z" clip-rule="evenodd"/>
</svg>
